<svg width="246" height="14" viewBox="0 0 246 14" fill="none" xmlns="http://www.w3.org/2000/svg">
<path d="M17.73 13.1973H19.692L10.926 0.921265H8.802L0.054 13.1973H1.998L4.104 10.2273H15.624L17.73 13.1973ZM4.95 9.02127L9.864 2.05527L14.778 9.02127H4.95ZM22.7467 13.1973V9.59727L27.4627 6.69927L34.7707 13.1973H36.9487L28.8127 5.90727L36.7147 0.921265H34.3567L26.2387 5.83527L22.7467 8.12127V0.921265H21.1267V13.1973H22.7467ZM41.1861 13.1973V0.921265H39.5661V13.1973H41.1861ZM45.5982 13.1973V8.78727H52.4202L57.7122 13.1973H59.8002L55.4082 9.56127L54.2562 8.71527H55.8582C58.7382 8.64327 60.1242 7.38327 60.1242 4.82727C60.1242 2.09126 58.5762 0.921265 55.5702 0.921265H43.9782V13.1973H45.5982ZM45.5982 2.32527H55.4982C57.6042 2.32527 58.4682 3.06327 58.4682 4.91727C58.4682 6.75327 57.6042 7.50927 55.4982 7.50927H45.5982V2.32527ZM78.3042 13.1973H80.2662L71.5002 0.921265H69.3762L60.6282 13.1973H62.5722L64.6782 10.2273H76.1982L78.3042 13.1973ZM65.5242 9.02127L70.4382 2.05527L75.3522 9.02127H65.5242ZM89.6138 13.1973V9.59727L94.3298 6.69927L101.638 13.1973H103.816L95.6798 5.90727L103.582 0.921265H101.224L93.1058 5.83527L89.6138 8.12127V0.921265H87.9938V13.1973H89.6138ZM120.828 6.84327C120.828 10.3173 118.668 11.9733 114.078 11.9733C109.488 11.9733 107.328 10.3173 107.328 6.84327V0.921265H105.708V7.11327C105.708 11.3613 108.84 13.3773 114.078 13.3773C119.298 13.3773 122.448 11.3613 122.448 7.11327V0.921265H120.828V6.84327ZM126.686 13.1973V8.78727H133.508L138.8 13.1973H140.888L136.496 9.56127L135.344 8.71527H136.946C139.826 8.64327 141.212 7.38327 141.212 4.82727C141.212 2.09126 139.664 0.921265 136.658 0.921265H125.066V13.1973H126.686ZM126.686 2.32527H136.586C138.692 2.32527 139.556 3.06327 139.556 4.91727C139.556 6.75327 138.692 7.50927 136.586 7.50927H126.686V2.32527ZM152.58 13.3953C159.06 13.3953 162.102 11.4873 162.102 7.05927C162.102 2.63127 159.06 0.723265 152.58 0.723265C146.1 0.723265 143.058 2.63127 143.058 7.05927C143.058 11.4873 146.1 13.3953 152.58 13.3953ZM152.58 11.9733C146.73 11.9733 144.678 10.4073 144.678 7.05927C144.678 3.71127 146.73 2.14527 152.58 2.14527C158.43 2.14527 160.464 3.71127 160.464 7.05927C160.464 10.4073 158.43 11.9733 152.58 11.9733ZM180.099 10.0293C180.099 7.41927 178.335 6.82527 175.527 6.57327L168.669 5.90727C166.797 5.70927 165.753 5.45727 165.753 4.05327C165.753 2.59526 166.671 2.05527 171.297 2.05527C173.727 2.05527 177.219 2.39727 179.289 2.81127L179.559 1.51526C177.399 1.06527 173.997 0.723265 171.585 0.723265C166.095 0.723265 164.205 1.65927 164.205 4.08926C164.205 6.33927 165.843 7.00527 168.741 7.25727L175.815 7.94127C177.615 8.15727 178.533 8.40927 178.533 9.99327C178.533 11.4693 177.651 12.0633 172.917 12.0633C170.289 12.0633 166.851 11.6853 164.637 11.2173L164.385 12.5673C166.473 13.0173 169.875 13.3953 172.593 13.3953C178.443 13.3953 180.099 12.4413 180.099 10.0293ZM198.732 13.1973H200.694L191.928 0.921265H189.804L181.056 13.1973H183L185.106 10.2273H196.626L198.732 13.1973ZM185.952 9.02127L190.866 2.05527L195.78 9.02127H185.952ZM205.066 13.1973H207.1L213.148 2.39727L219.214 13.1973H221.23L227.458 0.921265H225.64L220.204 11.7033L214.156 0.921265H212.14L206.128 11.7033L200.656 0.921265H198.838L205.066 13.1973ZM243.363 13.1973H245.325L236.559 0.921265H234.435L225.687 13.1973H227.631L229.737 10.2273H241.257L243.363 13.1973ZM230.583 9.02127L235.497 2.05527L240.411 9.02127H230.583Z" fill="#121212"/>
</svg>
