<svg width="246" height="13" viewBox="0 0 246 13" fill="none" xmlns="http://www.w3.org/2000/svg">
<path d="M17.73 12.5566H19.692L10.926 0.28064H8.802L0.054 12.5566H1.998L4.104 9.58664H15.624L17.73 12.5566ZM4.95 8.38064L9.864 1.41464L14.778 8.38064H4.95ZM22.7467 12.5566V8.95664L27.4627 6.05864L34.7707 12.5566H36.9487L28.8127 5.26664L36.7147 0.28064H34.3567L26.2387 5.19464L22.7467 7.48064V0.28064H21.1267V12.5566H22.7467ZM41.1861 12.5566V0.28064H39.5661V12.5566H41.1861ZM45.5982 12.5566V8.14664H52.4202L57.7122 12.5566H59.8002L55.4082 8.92064L54.2562 8.07464H55.8582C58.7382 8.00264 60.1242 6.74264 60.1242 4.18664C60.1242 1.45064 58.5762 0.28064 55.5702 0.28064H43.9782V12.5566H45.5982ZM45.5982 1.68464H55.4982C57.6042 1.68464 58.4682 2.42264 58.4682 4.27664C58.4682 6.11264 57.6042 6.86864 55.4982 6.86864H45.5982V1.68464ZM78.3042 12.5566H80.2662L71.5002 0.28064H69.3762L60.6282 12.5566H62.5722L64.6782 9.58664H76.1982L78.3042 12.5566ZM65.5242 8.38064L70.4382 1.41464L75.3522 8.38064H65.5242ZM89.6138 12.5566V8.95664L94.3298 6.05864L101.638 12.5566H103.816L95.6798 5.26664L103.582 0.28064H101.224L93.1058 5.19464L89.6138 7.48064V0.28064H87.9938V12.5566H89.6138ZM120.828 6.20264C120.828 9.67664 118.668 11.3326 114.078 11.3326C109.488 11.3326 107.328 9.67664 107.328 6.20264V0.28064H105.708V6.47264C105.708 10.7206 108.84 12.7366 114.078 12.7366C119.298 12.7366 122.448 10.7206 122.448 6.47264V0.28064H120.828V6.20264ZM126.686 12.5566V8.14664H133.508L138.8 12.5566H140.888L136.496 8.92064L135.344 8.07464H136.946C139.826 8.00264 141.212 6.74264 141.212 4.18664C141.212 1.45064 139.664 0.28064 136.658 0.28064H125.066V12.5566H126.686ZM126.686 1.68464H136.586C138.692 1.68464 139.556 2.42264 139.556 4.27664C139.556 6.11264 138.692 6.86864 136.586 6.86864H126.686V1.68464ZM152.58 12.7546C159.06 12.7546 162.102 10.8466 162.102 6.41864C162.102 1.99064 159.06 0.0826403 152.58 0.0826403C146.1 0.0826403 143.058 1.99064 143.058 6.41864C143.058 10.8466 146.1 12.7546 152.58 12.7546ZM152.58 11.3326C146.73 11.3326 144.678 9.76664 144.678 6.41864C144.678 3.07064 146.73 1.50464 152.58 1.50464C158.43 1.50464 160.464 3.07064 160.464 6.41864C160.464 9.76664 158.43 11.3326 152.58 11.3326ZM180.099 9.38864C180.099 6.77864 178.335 6.18464 175.527 5.93264L168.669 5.26664C166.797 5.06864 165.753 4.81664 165.753 3.41264C165.753 1.95464 166.671 1.41464 171.297 1.41464C173.727 1.41464 177.219 1.75664 179.289 2.17064L179.559 0.87464C177.399 0.42464 173.997 0.0826403 171.585 0.0826403C166.095 0.0826403 164.205 1.01864 164.205 3.44864C164.205 5.69864 165.843 6.36464 168.741 6.61664L175.815 7.30064C177.615 7.51664 178.533 7.76864 178.533 9.35264C178.533 10.8286 177.651 11.4226 172.917 11.4226C170.289 11.4226 166.851 11.0446 164.637 10.5766L164.385 11.9266C166.473 12.3766 169.875 12.7546 172.593 12.7546C178.443 12.7546 180.099 11.8006 180.099 9.38864ZM198.732 12.5566H200.694L191.928 0.28064H189.804L181.056 12.5566H183L185.106 9.58664H196.626L198.732 12.5566ZM185.952 8.38064L190.866 1.41464L195.78 8.38064H185.952ZM205.066 12.5566H207.1L213.148 1.75664L219.214 12.5566H221.23L227.458 0.28064H225.64L220.204 11.0626L214.156 0.28064H212.14L206.128 11.0626L200.656 0.28064H198.838L205.066 12.5566ZM243.363 12.5566H245.325L236.559 0.28064H234.435L225.687 12.5566H227.631L229.737 9.58664H241.257L243.363 12.5566ZM230.583 8.38064L235.497 1.41464L240.411 8.38064H230.583Z" fill="white"/>
</svg>
