<svg width="24" height="24" viewBox="0 0 24 24" fill="none" xmlns="http://www.w3.org/2000/svg">
<g clip-path="url(#clip0_809_182)">
<path fill-rule="evenodd" clip-rule="evenodd" d="M1.31773 0.669314C1.05537 0.716883 0.842534 0.90862 0.768 1.16461C0.69346 1.4206 0.770451 1.69669 0.966115 1.87765L11.0065 11.918L0.966115 21.9584V21.9579C0.832239 22.0893 0.755732 22.2683 0.753284 22.4557C0.751323 22.643 0.823901 22.824 0.95484 22.9578C1.08627 23.0917 1.26527 23.1682 1.45259 23.1702C1.64041 23.1726 1.82087 23.1 1.95475 22.9686L12.0166 12.9282L22.057 22.9686C22.1909 23.1 22.3718 23.1726 22.5591 23.1702C22.7465 23.1682 22.9255 23.0917 23.0569 22.9578C23.1878 22.824 23.2604 22.643 23.2584 22.4557C23.2565 22.2683 23.18 22.0893 23.0456 21.9579L13.0057 11.9175L23.0456 1.87766C23.254 1.6761 23.3173 1.36814 23.2055 1.10087C23.0937 0.833609 22.8298 0.662459 22.5405 0.669326C22.36 0.670797 22.1869 0.741414 22.057 0.866953L12.0171 10.9073L1.95474 0.866953C1.81939 0.736014 1.63746 0.664907 1.44964 0.669326C1.4055 0.664912 1.36136 0.664912 1.31772 0.669326L1.31773 0.669314Z" fill="#121212"/>
</g>
<defs>
<clipPath id="clip0_809_182">
<rect width="24" height="24" fill="white"/>
</clipPath>
</defs>
</svg>
