<svg width="24" height="24" viewBox="0 0 24 24" fill="none" xmlns="http://www.w3.org/2000/svg">
<path d="M12.3118 19.3858H1.25139C0.873573 19.3858 0.566162 19.6956 0.566162 20.0764C0.566162 20.2612 0.637389 20.4341 0.766808 20.5647C0.896063 20.6951 1.06818 20.767 1.25138 20.767H12.3114C12.6892 20.767 12.9968 20.457 12.9968 20.076C12.9968 19.6953 12.6895 19.3857 12.3117 19.3857L12.3118 19.3858Z" fill="#121212"/>
<path d="M17.546 11.3106H1.25139C0.873573 11.3106 0.566162 11.6204 0.566162 12.0013C0.566162 12.1862 0.637389 12.3591 0.766808 12.4897C0.896063 12.6201 1.06818 12.6919 1.25138 12.6919H17.5455C17.9233 12.6919 18.2309 12.3819 18.2309 12.001C18.2313 11.6202 17.9235 11.3105 17.5457 11.3105L17.546 11.3106Z" fill="#121212"/>
<path d="M22.7806 3.23341H1.25188C0.874061 3.23341 0.56665 3.54326 0.56665 3.92419C0.56665 4.10903 0.637877 4.28196 0.767296 4.41252C0.896552 4.54291 1.06867 4.61479 1.25186 4.61479H22.7806C23.1584 4.61479 23.466 4.30478 23.466 3.92385C23.466 3.54293 23.1587 3.2334 22.7809 3.2334L22.7806 3.23341Z" fill="#121212"/>
</svg>
